<svg xmlns="http://www.w3.org/2000/svg" width="47" height="47" viewBox="0 0 47 47"><path d="M23.5 47C10.54 47 0 36.46 0 23.5S10.54 0 23.5 0 47 10.54 47 23.5 36.46 47 23.5 47zm0-46C11.09 1 1 11.09 1 23.5S11.09 46 23.5 46 46 35.91 46 23.5 35.91 1 23.5 1zm-1.49 21h16.01v2H22.01v-2zm0-6.01h16.01v2H22.01v-2zm0-6h16.01v2H22.01v-2zm-4.01 13h-7a2 2 0 0 1-2-2v-9c0-1.11.89-2 2-2h7a2 2 0 0 1 2 2v9c0 1.1-.9 2-2 2zm1-11c0-.55-.45-1-1-1h-7c-.56 0-1 .45-1 1v9c0 .55.44 1 1 1h7c.55 0 1-.45 1-1v-9zM38.01 30h-29v-2h29v2zm0 6h-29v-2h29v2z" fill="#9D9D9D"/></svg>