<svg xmlns="http://www.w3.org/2000/svg" width="47" height="47" viewBox="0 0 47 47"><path d="M23.5 47C10.54 47 0 36.46 0 23.5S10.54 0 23.5 0 47 10.54 47 23.5 36.46 47 23.5 47zm0-46C11.09 1 1 11.09 1 23.5S11.09 46 23.5 46 46 35.91 46 23.5 35.91 1 23.5 1zm10.35 35.31l-.38.03v.53c0 .63-.52 1.13-1.17 1.13H13.44l-.09.01c-.02 0-.03-.01-.04-.01h-.14c-.64 0-1.17-.5-1.17-1.13V11.15c0-.62.53-1.13 1.17-1.13h.14c.01 0 .02-.01.04-.01l20.5-1.7c.63 0 1.14.51 1.14 1.13v25.74c0 .62-.51 1.13-1.14 1.13zM13.17 11.03c-.08 0-.14.05-.14.12v25.72c0 .07.06.12.14.12H31.8c.08 0 .15-.05.15-.12V11.15c0-.07-.07-.12-.15-.12H13.17zm20.8-1.59c0-.06-.04-.11-.1-.12l-7.97.7h5.9c.65 0 1.17.51 1.17 1.13v24.18l.79-.03h.09c.06 0 .12-.05.12-.12V9.44zM27.87 34H17.14c-.63 0-1.14-.54-1.14-1.2v-.6c0-.66.51-1.2 1.14-1.2h10.73c.63 0 1.14.54 1.14 1.2v.6c0 .66-.51 1.2-1.14 1.2zm.14-1.8c0-.12-.08-.2-.14-.2H17.14c-.06 0-.14.08-.14.2v.6c0 .11.07.2.14.2h10.73c.07 0 .14-.09.14-.2v-.6zM22.5 27a6.5 6.5 0 1 1 0-13 6.5 6.5 0 0 1 0 13zm0-12c-3.04 0-5.5 2.46-5.5 5.5s2.46 5.5 5.5 5.5 5.5-2.46 5.5-5.5-2.46-5.5-5.5-5.5z" fill="#9D9D9D"/></svg>