<svg xmlns="http://www.w3.org/2000/svg" width="47" height="47" viewBox="0 0 47 47"><path d="M23.5 47C10.54 47 0 36.46 0 23.5S10.54 0 23.5 0 47 10.54 47 23.5 36.46 47 23.5 47zm0-46C11.09 1 1 11.09 1 23.5S11.09 46 23.5 46 46 35.91 46 23.5 35.91 1 23.5 1zm-3.49 32h16v2h-16v-2zm0-10h16v2h-16v-2zm0-10.01h16v2h-16v-2zM14.5 37h-1a2.5 2.5 0 0 1-2.5-2.5v-1a2.5 2.5 0 0 1 2.5-2.5h1a2.5 2.5 0 0 1 2.5 2.5v1a2.5 2.5 0 0 1-2.5 2.5zm1.5-3.5c0-.83-.67-1.5-1.5-1.5h-1c-.83 0-1.5.67-1.5 1.5v1c0 .83.67 1.5 1.5 1.5h1c.83 0 1.5-.67 1.5-1.5v-1zM14.5 27h-1c-1.38 0-2.5-1.13-2.5-2.5v-1a2.5 2.5 0 0 1 2.5-2.5h1a2.5 2.5 0 0 1 2.5 2.5v1c0 1.37-1.12 2.5-2.5 2.5zm1.5-3.5c0-.83-.67-1.5-1.5-1.5h-1c-.83 0-1.5.67-1.5 1.5v1c0 .82.67 1.5 1.5 1.5h1c.83 0 1.5-.68 1.5-1.5v-1zm-1.5-6.51h-1a2.5 2.5 0 0 1-2.5-2.5v-1a2.5 2.5 0 0 1 2.5-2.5h1a2.5 2.5 0 0 1 2.5 2.5v1a2.5 2.5 0 0 1-2.5 2.5zm1.5-3.5c0-.83-.67-1.5-1.5-1.5h-1c-.83 0-1.5.67-1.5 1.5v1c0 .83.67 1.5 1.5 1.5h1c.83 0 1.5-.67 1.5-1.5v-1z" fill="#9D9D9D"/></svg>