<?xml version="1.0" encoding="utf-8"?>
<svg xmlns="http://www.w3.org/2000/svg"
	xmlns:xlink="http://www.w3.org/1999/xlink"
	width="47px" height="47px" viewBox="0 0 47 47">
<path fillRule="evenodd" d="M 23.5 47C 10.54 47-0 36.46-0 23.5-0 10.54 10.54-0 23.5-0 36.46-0 47 10.54 47 23.5 47 36.46 36.46 47 23.5 47ZM 23.5 1C 11.09 1 1 11.09 1 23.5 1 35.91 11.09 46 23.5 46 35.91 46 46 35.91 46 23.5 46 11.09 35.91 1 23.5 1ZM 33.85 36.31C 33.85 36.31 33.47 36.34 33.47 36.34 33.47 36.34 33.47 36.87 33.47 36.87 33.47 37.5 32.95 38 32.3 38 32.3 38 13.44 38 13.44 38 13.44 38 13.35 38.01 13.35 38.01 13.33 38.01 13.32 38 13.31 38 13.31 38 13.17 38 13.17 38 12.53 38 12 37.5 12 36.87 12 36.87 12 11.15 12 11.15 12 10.53 12.53 10.02 13.17 10.02 13.17 10.02 13.31 10.02 13.31 10.02 13.32 10.02 13.33 10.01 13.35 10.01 13.35 10.01 33.85 8.31 33.85 8.31 34.48 8.31 34.99 8.82 34.99 9.44 34.99 9.44 34.99 35.18 34.99 35.18 34.99 35.8 34.48 36.31 33.85 36.31ZM 13.17 11.03C 13.09 11.03 13.03 11.08 13.03 11.15 13.03 11.15 13.03 36.87 13.03 36.87 13.03 36.94 13.09 36.99 13.17 36.99 13.17 36.99 31.8 36.99 31.8 36.99 31.88 36.99 31.95 36.94 31.95 36.87 31.95 36.87 31.95 11.15 31.95 11.15 31.95 11.08 31.88 11.03 31.8 11.03 31.8 11.03 13.17 11.03 13.17 11.03ZM 33.97 9.44C 33.97 9.38 33.93 9.33 33.87 9.32 33.87 9.32 25.9 10.02 25.9 10.02 25.9 10.02 31.8 10.02 31.8 10.02 32.45 10.02 32.97 10.53 32.97 11.15 32.97 11.15 32.97 35.33 32.97 35.33 32.97 35.33 33.76 35.3 33.76 35.3 33.76 35.3 33.8 35.3 33.8 35.3 33.8 35.3 33.85 35.3 33.85 35.3 33.91 35.3 33.97 35.25 33.97 35.18 33.97 35.18 33.97 9.44 33.97 9.44ZM 27.87 34C 27.87 34 17.14 34 17.14 34 16.51 34 16 33.46 16 32.8 16 32.8 16 32.2 16 32.2 16 31.54 16.51 31 17.14 31 17.14 31 27.87 31 27.87 31 28.5 31 29.01 31.54 29.01 32.2 29.01 32.2 29.01 32.8 29.01 32.8 29.01 33.46 28.5 34 27.87 34ZM 28.01 32.2C 28.01 32.08 27.93 32 27.87 32 27.87 32 17.14 32 17.14 32 17.08 32 17 32.08 17 32.2 17 32.2 17 32.8 17 32.8 17 32.91 17.07 33 17.14 33 17.14 33 27.87 33 27.87 33 27.94 33 28.01 32.91 28.01 32.8 28.01 32.8 28.01 32.2 28.01 32.2ZM 22.5 27C 18.91 27 16 24.09 16 20.5 16 16.91 18.91 14 22.5 14 26.09 14 29 16.91 29 20.5 29 24.09 26.09 27 22.5 27ZM 22.5 15C 19.46 15 17 17.46 17 20.5 17 23.54 19.46 26 22.5 26 25.54 26 28 23.54 28 20.5 28 17.46 25.54 15 22.5 15Z" fill="rgb(157,157,157)"/></svg>