<?xml version="1.0" encoding="utf-8"?>
<svg xmlns="http://www.w3.org/2000/svg"
	xmlns:xlink="http://www.w3.org/1999/xlink"
	width="47px" height="47px" viewBox="0 0 47 47">
<path fillRule="evenodd" d="M 23.5 47C 10.54 47-0 36.46-0 23.5-0 10.54 10.54-0 23.5-0 36.46-0 47 10.54 47 23.5 47 36.46 36.46 47 23.5 47ZM 23.5 1C 11.09 1 1 11.09 1 23.5 1 35.91 11.09 46 23.5 46 35.91 46 46 35.91 46 23.5 46 11.09 35.91 1 23.5 1ZM 22.01 22C 22.01 22 38.02 22 38.02 22 38.02 22 38.02 24 38.02 24 38.02 24 22.01 24 22.01 24 22.01 24 22.01 22 22.01 22ZM 22.01 15.99C 22.01 15.99 38.02 15.99 38.02 15.99 38.02 15.99 38.02 17.99 38.02 17.99 38.02 17.99 22.01 17.99 22.01 17.99 22.01 17.99 22.01 15.99 22.01 15.99ZM 22.01 9.99C 22.01 9.99 38.02 9.99 38.02 9.99 38.02 9.99 38.02 11.99 38.02 11.99 38.02 11.99 22.01 11.99 22.01 11.99 22.01 11.99 22.01 9.99 22.01 9.99ZM 18 22.99C 18 22.99 11 22.99 11 22.99 9.89 22.99 9 22.09 9 20.99 9 20.99 9 11.99 9 11.99 9 10.88 9.89 9.99 11 9.99 11 9.99 18 9.99 18 9.99 19.1 9.99 20 10.88 20 11.99 20 11.99 20 20.99 20 20.99 20 22.09 19.1 22.99 18 22.99ZM 19 11.99C 19 11.44 18.55 10.99 18 10.99 18 10.99 11 10.99 11 10.99 10.44 10.99 10 11.44 10 11.99 10 11.99 10 20.99 10 20.99 10 21.54 10.44 21.99 11 21.99 11 21.99 18 21.99 18 21.99 18.55 21.99 19 21.54 19 20.99 19 20.99 19 11.99 19 11.99ZM 38.01 30C 38.01 30 9.01 30 9.01 30 9.01 30 9.01 28 9.01 28 9.01 28 38.01 28 38.01 28 38.01 28 38.01 30 38.01 30ZM 38.01 36C 38.01 36 9.01 36 9.01 36 9.01 36 9.01 34 9.01 34 9.01 34 38.01 34 38.01 34 38.01 34 38.01 36 38.01 36Z" fill="rgb(157,157,157)"/></svg>