<?xml version="1.0" encoding="utf-8"?>
<svg xmlns="http://www.w3.org/2000/svg"
	xmlns:xlink="http://www.w3.org/1999/xlink"
	width="47px" height="47px" viewBox="0 0 47 47">
<path fillRule="evenodd" d="M 23.5 47C 10.54 47-0 36.46-0 23.5-0 10.54 10.54-0 23.5-0 36.46-0 47 10.54 47 23.5 47 36.46 36.46 47 23.5 47ZM 23.5 1C 11.09 1 1 11.09 1 23.5 1 35.91 11.09 46 23.5 46 35.91 46 46 35.91 46 23.5 46 11.09 35.91 1 23.5 1ZM 20.01 33C 20.01 33 36.01 33 36.01 33 36.01 33 36.01 35 36.01 35 36.01 35 20.01 35 20.01 35 20.01 35 20.01 33 20.01 33ZM 20.01 23C 20.01 23 36.01 23 36.01 23 36.01 23 36.01 25 36.01 25 36.01 25 20.01 25 20.01 25 20.01 25 20.01 23 20.01 23ZM 20.01 12.99C 20.01 12.99 36.01 12.99 36.01 12.99 36.01 12.99 36.01 14.99 36.01 14.99 36.01 14.99 20.01 14.99 20.01 14.99 20.01 14.99 20.01 12.99 20.01 12.99ZM 14.5 37C 14.5 37 13.5 37 13.5 37 12.12 37 11 35.88 11 34.5 11 34.5 11 33.5 11 33.5 11 32.12 12.12 31 13.5 31 13.5 31 14.5 31 14.5 31 15.88 31 17 32.12 17 33.5 17 33.5 17 34.5 17 34.5 17 35.88 15.88 37 14.5 37ZM 16 33.5C 16 32.67 15.33 32 14.5 32 14.5 32 13.5 32 13.5 32 12.67 32 12 32.67 12 33.5 12 33.5 12 34.5 12 34.5 12 35.33 12.67 36 13.5 36 13.5 36 14.5 36 14.5 36 15.33 36 16 35.33 16 34.5 16 34.5 16 33.5 16 33.5ZM 14.5 27C 14.5 27 13.5 27 13.5 27 12.12 27 11 25.87 11 24.5 11 24.5 11 23.5 11 23.5 11 22.12 12.12 21 13.5 21 13.5 21 14.5 21 14.5 21 15.88 21 17 22.12 17 23.5 17 23.5 17 24.5 17 24.5 17 25.87 15.88 27 14.5 27ZM 16 23.5C 16 22.67 15.33 22 14.5 22 14.5 22 13.5 22 13.5 22 12.67 22 12 22.67 12 23.5 12 23.5 12 24.5 12 24.5 12 25.32 12.67 26 13.5 26 13.5 26 14.5 26 14.5 26 15.33 26 16 25.32 16 24.5 16 24.5 16 23.5 16 23.5ZM 14.5 16.99C 14.5 16.99 13.5 16.99 13.5 16.99 12.12 16.99 11 15.87 11 14.49 11 14.49 11 13.49 11 13.49 11 12.11 12.12 10.99 13.5 10.99 13.5 10.99 14.5 10.99 14.5 10.99 15.88 10.99 17 12.11 17 13.49 17 13.49 17 14.49 17 14.49 17 15.87 15.88 16.99 14.5 16.99ZM 16 13.49C 16 12.66 15.33 11.99 14.5 11.99 14.5 11.99 13.5 11.99 13.5 11.99 12.67 11.99 12 12.66 12 13.49 12 13.49 12 14.49 12 14.49 12 15.32 12.67 15.99 13.5 15.99 13.5 15.99 14.5 15.99 14.5 15.99 15.33 15.99 16 15.32 16 14.49 16 14.49 16 13.49 16 13.49Z" fill="rgb(157,157,157)"/></svg>